<?xml version="1.0" encoding="UTF-8"?>
<svg width="18px" height="18px" viewBox="0 0 18 18" version="1.1" xmlns="http://www.w3.org/2000/svg" xmlns:xlink="http://www.w3.org/1999/xlink">
    <g stroke="none" stroke-width="1" fill="none" fill-rule="evenodd">
        <path d="M16.8,0H1.2C0.54,0 0,0.54 0,1.2V16.8C0,17.46 0.54,18 1.2,18H16.8C17.46,18 18,17.46 18,16.8V1.2C18,0.54 17.46,0 16.8,0ZM5.4,15.6H2.7V6.6H5.4V15.6ZM4.05,5.4C3.24,5.4 2.7,4.86 2.7,4.05C2.7,3.24 3.24,2.7 4.05,2.7C4.86,2.7 5.4,3.24 5.4,4.05C5.4,4.86 4.86,5.4 4.05,5.4ZM15.6,15.6H12.9V11.1C12.9,10.26 12.9,9.18 11.7,9.18C10.5,9.18 10.26,10.08 10.26,11.04V15.6H7.56V6.6H10.14V7.56H10.17C10.5,6.9 11.34,6.2 12.72,6.2C15.48,6.2 15.6,7.92 15.6,10.5V15.6Z" fill="#FFFFFF"></path>
    </g>
</svg> 